/* XPM */
static char *b143f243b55742dceb7649e0e504bc094NkCbZbB0Z248xkT[] = {
/* columns rows colors chars-per-pixel */
"64 64 3 1 ",
"  c #B97A57",
". c #22B14C",
"X c white",
/* pixels */
"                                                                ",
"                               ..                               ",
"                              ....                              ",
"                             ......                             ",
"                             ......                             ",
"                             ......                             ",
"                            ........                            ",
"                            ........                            ",
"                            ........                            ",
"                            .........                           ",
"                           ..........                           ",
"                           ..........                           ",
"                           ..........                           ",
"                          ......X.....                          ",
"                          .....XX.....                          ",
"                          .....XX.....                          ",
"                         ......XX......                         ",
"                         .....XXXX.....                         ",
"                         .....XXXX.....                         ",
"                        ......XXXX......                        ",
"                        .....XXXXXX.....                        ",
"                        .....XXXXXX.....                        ",
"                        .....XXXXXX......                       ",
"        ....................XXXXXXXX....................        ",
"  ..........................XXXXXXXX..........................  ",
" ...........................XXXXXXXX........................... ",
" ..........................XXXXXXXXXX.......................... ",
"  .........................XXXXXXXXXX.........................  ",
"  .........XXXXXXXXXXXXXXXXXXXXXXXXXXXXXXXXXXXXXXXXXX.........  ",
"    ........XXXXXXXXXXXXXXXXXXXXXXXXXXXXXXXXXXXXXXXX........    ",
"     ........XXXXXXXXXXXXXXXXXXXXXXXXXXXXXXXXXXXXXX........     ",
"      ........XXXXXXXXXXXXXXXXXXXXXXXXXXXXXXXXXXXX........      ",
"        ........XXXXXXXXXXXXXXXXXXXXXXXXXXXXXXXX........        ",
"         ........XXXXXXXXXXXXXXXXXXXXXXXXXXXXXX........         ",
"          ........XXXXXXXXXXXXXXXXXXXXXXXXXXXX........          ",
"           .........XXXXXXXXXXXXXXXXXXXXXXXX.........           ",
"             ........XXXXXXXXXXXXXXXXXXXXXX........             ",
"              ........XXXXXXXXXXXXXXXXXXXX........              ",
"               ........XXXXXXXXXXXXXXXXXX........               ",
"                 ......XXXXXXXXXXXXXXXXXX......                 ",
"                  .....XXXXXXXXXXXXXXXXXX.....                  ",
"                 ......XXXXXXXXXXXXXXXXXX......                 ",
"                 .....XXXXXXXXXXXXXXXXXXXX.....                 ",
"                 .....XXXXXXXXXXXXXXXXXXXX.....                 ",
"                 .....XXXXXXXXXXXXXXXXXXXX.....                 ",
"                ......XXXXXXXXXXXXXXXXXXXXX.....                ",
"                .....XXXXXXXXXX..XXXXXXXXXX.....                ",
"                .....XXXXXXXXX.....XXXXXXXX.....                ",
"               ......XXXXXXX........XXXXXXX......               ",
"               .....XXXXXXX..........XXXXXXX.....               ",
"               .....XXXXX..............XXXXX.....               ",
"               .....XXXX................XXXX.....               ",
"              ......XXX........  ........XXXX.....              ",
"              .....XX.........    .........XX.....              ",
"              .....X........        ........X.....              ",
"             ..............          ..............             ",
"             .............            .............             ",
"             ...........                ...........             ",
"             ..........                  ..........             ",
"            .........                      .........            ",
"            ........                        ........            ",
"            .......                          .......            ",
"            .....                              .....            ",
"             ...                                ...             "
};
