/* XPM */
static char *_2ad738b70004541b1cfc846305daf3cHrUiMCozln9ygkAB[] = {
/* columns rows colors chars-per-pixel */
"64 64 46 1 ",
"  c #667B1C",
". c #667B45",
"X c #90711C",
"o c #B6661C",
"O c #B6711C",
"+ c #DB661C",
"@ c #DB711C",
"# c #FF661C",
"$ c #B67145",
"% c #B67B45",
"& c #907B69",
"* c #FF6645",
"= c #FF7145",
"- c #FF6669",
"; c #FF7169",
": c #3A8545",
"> c #008F69",
", c #3A8F69",
"< c #668569",
"1 c #908569",
"2 c #DB7B8B",
"3 c #FF718B",
"4 c #DB7BAB",
"5 c #FF7BAB",
"6 c #00988B",
"7 c #3A8F8B",
"8 c #0098AB",
"9 c #3A8FAB",
"0 c #3A98AB",
"q c #00A2AB",
"w c #66858B",
"e c #668F8B",
"r c #0098CA",
"t c #3A98CA",
"y c #00A2CA",
"u c #3AA2CA",
"i c #3A98E8",
"p c #00A2E8",
"a c #3AA2E8",
"s c #668FCA",
"d c #6698E8",
"f c #66A2E8",
"g c #B6858B",
"h c #9098E8",
"j c #B68FE8",
"k c #DB85CA",
/* pixels */
"################################################################",
"################################################################",
"################################################################",
"################################################################",
"################################################################",
"################################################################",
"################################################################",
"################################################################",
"################################################################",
"################################################################",
"################################################################",
"################################################################",
"################################################################",
"################################################################",
"################################################################",
"##########*gstppppyte%###################*gstppppyte%###########",
"########2dppppppppppppy<+##############2dppppppppppppy<+########",
"######;hpppppppppppppppp8X###########;hpppppppppppppppp8X#######",
"#####3appppppppppppppppppyX#########3appppppppppppppppppyX######",
"####-fppppppppppppppppppppqo#######-fppppppppppppppppppppqo#####",
"###*hpppppppppppppppppppppp>######*hpppppppppppppppppppppp>#####",
"###kpppppppppppppppppppppppp #####kpppppppppppppppppppppppp ####",
"##*hppppppppp8$###2dpppppppp>####*hppppppppp8$###2dpppppppp>####",
"##5ppppppppp:######*hpppppppyX###5ppppppppp:######*hpppppppyX###",
"##kpppppppp>########-fppppy01@###kpppppppp>########-fppppy01@###",
"#*hpppppppp #########kre%+######*hpppppppp #########kre%+#######",
"#-fpppppppqo####################-fpppppppqo#####################",
"#-fppppppp6+####################-fppppppp6+#####################",
"#3appppppp6+####################3appppppp6+#####################",
"#3appppppp>#####################3appppppp>######################",
"#3appppppp6+####################3appppppp6+#####################",
"#-fppppppp6+####################-fppppppp6+#####################",
"#-fpppppppqo#########3uw$#######-fpppppppqo#########3uw$########",
"#*hpppppppyX#########kpppp8<@###*hpppppppyX#########kpppp8<@####",
"##kpppppppp>########-fppppppp:###kpppppppp>########-fppppppp:###",
"##3apppppppp ######*hpppppppp ###3apppppppp ######*hpppppppp ###",
"##*hppppppppp,@##*2dpppppppp6+###*hppppppppp,@##*2dpppppppp6+###",
"###5pppppppppppppppppppppppp:#####5pppppppppppppppppppppppp:####",
"####jppppppppppppppppppppppqo######jppppppppppppppppppppppqo####",
"####-dppppppppppppppppppppp #######-dppppppppppppppppppppp #####",
"#####-fppppppppppppppppppp.#########-fppppppppppppppppppp.######",
"######*hppppppppppppppppy.###########*hppppppppppppppppy.#######",
"########4ippppppppppppp7O##############4ippppppppppppp7O########",
"##########=gstpppppt9&+##################=gstpppppt9&+##########",
"################################################################",
"################################################################",
"################################################################",
"################################################################",
"################################################################",
"################################################################",
"################################################################",
"################################################################",
"################################################################",
"################################################################",
"################################################################",
"################################################################",
"################################################################",
"################################################################",
"################################################################",
"################################################################",
"################################################################",
"################################################################",
"################################################################",
"################################################################"
};
