/* XPM */
static char *_b03d57143104684819efb312b4b75e4KRt13rBU3IhRcmgl[] = {
/* columns rows colors chars-per-pixel */
"64 64 3 1 ",
"  c black",
". c #ED1C24",
"X c #B97A57",
/* pixels */
"XXXXXXXXXXXXXXXXXXXXXXXXXXXXXXXXXXXXXXXXXXXXXXXXXXXXXXXXXXXXXXXX",
"XXXXXXXXXXXXXXXXXXXXXXXXXXX..........XXXXXXXXXXXXXXXXXXXXXXXXXXX",
"XXXXXXXXXXXXXXXXXXXXXXX..................XXXXXXXXXXXXXXXXXXXXXXX",
"XXXXXXXXXXXXXXXXXXXX........................XXXXXXXXXXXXXXXXXXXX",
"XXXXXXXXXXXXXXXXXX............................XXXXXXXXXXXXXXXXXX",
"XXXXXXXXXXXXXXXXX..............................XXXXXXXXXXXXXXXXX",
"XXXXXXXXXXXXXXX............          ............XXXXXXXXXXXXXXX",
"XXXXXXXXXXXXXX..........                ..........XXXXXXXXXXXXXX",
"XXXXXXXXXXXXX........                      ........XXXXXXXXXXXXX",
"XXXXXXXXXXX.........                        .........XXXXXXXXXXX",
"XXXXXXXXXX........                            ........XXXXXXXXXX",
"XXXXXXXXXX.......                              ........XXXXXXXXX",
"XXXXXXXXX.......                                 ......XXXXXXXXX",
"XXXXXXXX......                                    ......XXXXXXXX",
"XXXXXXX.......                                    .......XXXXXXX",
"XXXXXXX......                                      ......XXXXXXX",
"XXXXXX......                                        ......XXXXXX",
"XXXXXX.....                                          ......XXXXX",
"XXXXX......                                          ......XXXXX",
"XXXX......                                            ......XXXX",
"XXXX......                                            ......XXXX",
"XXXX.....                                              .....XXXX",
"XXXX.....                                              ......XXX",
"XXX.....                                                .....XXX",
"XXX.....                                                .....XXX",
"XXX.....                                                .....XXX",
"XXX.....                                                 .....XX",
"XX.....                                                  .....XX",
"XX.....                                                  .....XX",
"XX.....                                                  .....XX",
"XX.....                                                  .....XX",
"XX.....                                                  .....XX",
"XX.....                                                  .....XX",
"XX.....                                                  .....XX",
"XX.....                                                  .....XX",
"XX.....                                                  .....XX",
"XXX.....                                                 .....XX",
"XXX.....                                                .....XXX",
"XXX.....                                                .....XXX",
"XXX.....                                                .....XXX",
"XXX......                                              ......XXX",
"XXXX.....                                              .....XXXX",
"XXXX......                                            ......XXXX",
"XXXX......                                            ......XXXX",
"XXXXX......                                          ......XXXXX",
"XXXXX......                                          ......XXXXX",
"XXXXXX......                                        ......XXXXXX",
"XXXXXXX......                                      .......XXXXXX",
"XXXXXXX......                                      ......XXXXXXX",
"XXXXXXXX......                                    ......XXXXXXXX",
"XXXXXXXXX......                                  ......XXXXXXXXX",
"XXXXXXXXXX.......                              ........XXXXXXXXX",
"XXXXXXXXXX........                            ........XXXXXXXXXX",
"XXXXXXXXXXX.........                        .........XXXXXXXXXXX",
"XXXXXXXXXXXX.........                      .........XXXXXXXXXXXX",
"XXXXXXXXXXXXXX..........                ..........XXXXXXXXXXXXXX",
"XXXXXXXXXXXXXXX............          ............XXXXXXXXXXXXXXX",
"XXXXXXXXXXXXXXXX................................XXXXXXXXXXXXXXXX",
"XXXXXXXXXXXXXXXXXX............................XXXXXXXXXXXXXXXXXX",
"XXXXXXXXXXXXXXXXXXXX........................XXXXXXXXXXXXXXXXXXXX",
"XXXXXXXXXXXXXXXXXXXXXXX..................XXXXXXXXXXXXXXXXXXXXXXX",
"XXXXXXXXXXXXXXXXXXXXXXXXXXX..........XXXXXXXXXXXXXXXXXXXXXXXXXXX",
"XXXXXXXXXXXXXXXXXXXXXXXXXXXXXXXXXXXXXXXXXXXXXXXXXXXXXXXXXXXXXXXX",
"XXXXXXXXXXXXXXXXXXXXXXXXXXXXXXXXXXXXXXXXXXXXXXXXXXXXXXXXXXXXXXXX"
};
